<svg width="100" height="23" viewBox="0 0 100 23" fill="none" xmlns="http://www.w3.org/2000/svg">
<path d="M0 22.6323V0.735466H6.53659C11.2629 0.735466 13.626 2.62985 13.626 6.4186C13.626 7.64438 13.3225 8.703 12.7154 9.59448C12.1084 10.4859 11.2846 11.0431 10.2439 11.266C11.458 11.4443 12.4011 11.9903 13.0732 12.9041C13.7669 13.7955 14.1247 14.9656 14.1463 16.4142C14.1463 20.5596 11.5122 22.6323 6.2439 22.6323H0ZM6.73171 19.6235C8.1626 19.6235 9.18157 19.3004 9.78862 18.6541C10.3957 18.0078 10.6992 17.1497 10.6992 16.0799C10.6992 14.9879 10.3631 14.1967 9.69106 13.7064C9.04065 13.2161 8 12.9709 6.56911 12.9709H3.38211V19.6235H6.73171ZM10.3089 6.68605C10.3089 4.72481 9.12737 3.74419 6.76423 3.74419H3.38211V9.96221H6.50407C9.04065 9.96221 10.3089 8.87015 10.3089 6.68605Z" fill="#000228"/>
<path d="M16.3902 14.7093C16.3902 12.0126 16.9756 9.97335 18.1463 8.59157C19.3171 7.1875 20.9431 6.48547 23.0244 6.48547C25.1057 6.48547 26.71 7.12064 27.8374 8.39099C28.9865 9.63905 29.5827 11.4777 29.626 13.907L29.4959 16.3808H20C20.1951 18.7878 21.3659 19.9913 23.5122 19.9913C25.0081 19.9913 26.5908 19.7127 28.2602 19.1555L28.9431 22.064C28.2493 22.3091 27.3496 22.5208 26.2439 22.6991C25.1382 22.8997 24.2276 23 23.5122 23C18.7642 23 16.3902 20.2364 16.3902 14.7093ZM23.1545 9.59448C22.1355 9.59448 21.3659 9.90649 20.8455 10.5305C20.3469 11.1323 20.065 12.1463 20 13.5727H26.0163C26.0163 10.9205 25.0623 9.59448 23.1545 9.59448Z" fill="#000228"/>
<path d="M31.8049 21.8968L32.5203 18.8547C34.5799 19.5233 36.2168 19.8576 37.4309 19.8576C38.645 19.8576 39.4688 19.735 39.9024 19.4898C40.336 19.267 40.5528 18.8658 40.5528 18.2863C40.5528 17.7069 40.3577 17.2946 39.9675 17.0494C39.5772 16.8043 38.8401 16.548 37.7561 16.2805C35.6098 15.7456 34.1138 15.155 33.2683 14.5087C32.4228 13.8401 32 12.7592 32 11.266C32 8.07897 33.9946 6.48547 37.9837 6.48547C39.6965 6.48547 41.6802 6.77519 43.935 7.35465L43.3171 10.5305C41.1707 9.90649 39.5122 9.59448 38.3415 9.59448C37.1707 9.59448 36.3794 9.70591 35.9675 9.92878C35.5772 10.1294 35.3821 10.4859 35.3821 10.9985C35.3821 11.5111 35.5772 11.89 35.9675 12.1352C36.3794 12.358 37.4201 12.7035 39.0894 13.1715C40.7588 13.6395 41.9837 14.1856 42.7642 14.8096C43.5447 15.4113 43.935 16.4477 43.935 17.9186C43.935 21.2839 41.9187 22.9666 37.8862 22.9666C36 22.9666 33.9729 22.61 31.8049 21.8968Z" fill="#000228"/>
<path d="M49.7886 6.75291L49.8537 7.72238C51.6098 6.89777 52.9865 6.48547 53.9837 6.48547C55.7398 6.48547 57.0298 7.02035 57.8537 8.09012C58.6992 9.1376 59.122 10.7868 59.122 13.0378V22.6323H55.7724V13.1381C55.7724 12.0683 55.5881 11.2326 55.2195 10.6308C54.851 10.0291 54.2764 9.7282 53.4959 9.7282C52.7155 9.7282 51.5122 10.1182 49.8862 10.8983V22.6323H46.5366V6.75291H49.7886Z" fill="#000228"/>
<path d="M61.6585 22.6323V19.5567H66.5041V9.82849H61.9187V6.75291H69.8537V19.5567H74.439V22.6323H61.6585ZM68 4.44622C67.3496 4.44622 66.8293 4.24564 66.439 3.84448C66.0705 3.42103 65.8862 2.875 65.8862 2.2064C65.8862 1.53779 66.0813 1.00291 66.4715 0.601744C66.8618 0.200581 67.3821 0 68.0325 0C68.7046 0 69.2141 0.200581 69.561 0.601744C69.9295 0.980621 70.1138 1.5155 70.1138 2.2064C70.1138 2.89729 69.9295 3.44331 69.561 3.84448C69.1924 4.24564 68.6721 4.44622 68 4.44622Z" fill="#000228"/>
<path d="M77.1382 22.6323V0.401164H80.4878V13.1381L82.6341 12.9041C83.8482 11.2994 84.9106 9.56105 85.8211 7.68895L86.2764 6.75291H89.9187C88.5528 9.71705 87.0352 12.1909 85.3659 14.1744C86.7534 16.2025 88.1518 18.5984 89.561 21.3619L90.2114 22.6323H86.4065C85.3442 20.2699 84.1301 18.0078 82.7642 15.8459L80.4878 16.0799V22.6323H77.1382Z" fill="#000228"/>
<path d="M95.2845 22.6323V17.7849H100V22.6323H95.2845Z" fill="#000228"/>
</svg>
