<svg width="38" height="40" viewBox="0 0 38 40" fill="none" xmlns="http://www.w3.org/2000/svg">
<path d="M34 11.916V4.00004C34 2.89404 33.104 2.00004 32 2.00004C30.896 2.00004 30 2.89404 30 4.00004V8.00404L22.398 0.570035C21.62 -0.191965 20.378 -0.191965 19.602 0.570035L0.878 18.874C0.32 19.438 0 20.212 0 21C0 22.654 1.346 24 3 24H6V35C6 37.758 8.244 40 11 40H16C17.104 40 18 39.106 18 38C18 36.894 17.104 36 16 36H11C10.448 36 10 35.55 10 35V22C10 20.894 9.104 20 8 20H5.446L21 4.79604L34.102 17.608C34.894 18.382 36.158 18.368 36.93 17.576C37.702 16.786 37.688 15.52 36.898 14.748L34 11.916Z" fill="#3B3C45"/>
</svg>
